<svg width="433" height="421" viewBox="0 0 433 421" fill="none" xmlns="http://www.w3.org/2000/svg">
<path d="M150.895 69V2.09091H158.998V31.8864H194.674V2.09091H202.776V69H194.674V39.0739H158.998V69H150.895ZM217.951 69V18.8182H225.662V69H217.951ZM221.872 10.4545C220.369 10.4545 219.073 9.94271 217.984 8.91903C216.917 7.89536 216.383 6.66477 216.383 5.22727C216.383 3.78977 216.917 2.55919 217.984 1.53551C219.073 0.511836 220.369 0 221.872 0C223.375 0 224.66 0.511836 225.727 1.53551C226.816 2.55919 227.36 3.78977 227.36 5.22727C227.36 6.66477 226.816 7.89536 225.727 8.91903C224.66 9.94271 223.375 10.4545 221.872 10.4545ZM249.977 2.09091L249.323 50.1818H241.744L241.09 2.09091H249.977ZM245.533 69.5227C243.922 69.5227 242.539 68.9455 241.384 67.7912C240.23 66.6368 239.653 65.2538 239.653 63.642C239.653 62.0303 240.23 60.6473 241.384 59.4929C242.539 58.3385 243.922 57.7614 245.533 57.7614C247.145 57.7614 248.528 58.3385 249.683 59.4929C250.837 60.6473 251.414 62.0303 251.414 63.642C251.414 64.7093 251.142 65.6894 250.597 66.5824C250.075 67.4754 249.367 68.1941 248.474 68.7386C247.603 69.2614 246.622 69.5227 245.533 69.5227ZM36.271 113.091V180H28.1687V113.091H36.271ZM68.9822 123.023L58.7891 107.864H67.8061L75.7777 123.023H68.9822ZM97.2013 180V129.818H104.65V137.659H105.304C106.349 134.98 108.037 132.9 110.368 131.419C112.698 129.916 115.497 129.165 118.764 129.165C122.074 129.165 124.83 129.916 127.029 131.419C129.251 132.9 130.983 134.98 132.224 137.659H132.747C134.032 135.067 135.959 133.009 138.529 131.484C141.1 129.938 144.181 129.165 147.775 129.165C152.262 129.165 155.932 130.57 158.785 133.379C161.638 136.167 163.065 140.512 163.065 146.415V180H155.355V146.415C155.355 142.712 154.342 140.066 152.316 138.476C150.291 136.886 147.906 136.091 145.162 136.091C141.633 136.091 138.9 137.158 136.961 139.293C135.023 141.405 134.054 144.084 134.054 147.33V180H126.213V145.631C126.213 142.777 125.287 140.48 123.436 138.737C121.584 136.973 119.199 136.091 116.281 136.091C114.277 136.091 112.404 136.625 110.662 137.692C108.941 138.759 107.547 140.24 106.48 142.135C105.434 144.008 104.912 146.175 104.912 148.636V180H97.2013ZM206.827 180H198.333L222.901 113.091H231.265L255.833 180H247.338L227.344 123.676H226.821L206.827 180ZM209.963 153.864H244.202V161.051H209.963V153.864ZM270.959 129.818L282.982 150.335L295.005 129.818H303.891L287.686 154.909L303.891 180H295.005L282.982 160.528L270.959 180H262.073L278.016 154.909L262.073 129.818H270.959ZM333.866 181.045C329.031 181.045 324.86 179.978 321.353 177.844C317.868 175.688 315.179 172.682 313.284 168.827C311.411 164.95 310.474 160.441 310.474 155.301C310.474 150.161 311.411 145.631 313.284 141.71C315.179 137.768 317.814 134.697 321.19 132.497C324.588 130.276 328.552 129.165 333.082 129.165C335.696 129.165 338.277 129.6 340.825 130.472C343.373 131.343 345.693 132.759 347.784 134.719C349.875 136.657 351.541 139.227 352.782 142.429C354.024 145.631 354.645 149.573 354.645 154.256V157.523H315.963V150.858H346.804C346.804 148.027 346.237 145.5 345.105 143.278C343.994 141.057 342.404 139.304 340.335 138.018C338.288 136.733 335.87 136.091 333.082 136.091C330.011 136.091 327.354 136.853 325.11 138.378C322.889 139.881 321.179 141.841 319.981 144.259C318.783 146.676 318.184 149.268 318.184 152.034V156.477C318.184 160.267 318.838 163.48 320.145 166.115C321.473 168.729 323.314 170.722 325.666 172.094C328.018 173.444 330.752 174.119 333.866 174.119C335.892 174.119 337.721 173.836 339.355 173.27C341.01 172.682 342.437 171.811 343.635 170.656C344.833 169.48 345.758 168.021 346.412 166.278L353.86 168.369C353.076 170.896 351.759 173.117 349.907 175.034C348.056 176.929 345.769 178.41 343.047 179.477C340.324 180.523 337.264 181.045 333.866 181.045ZM374.083 113.091V180H366.373V113.091H374.083ZM399.705 170.852L399.183 174.381C398.812 176.864 398.246 179.521 397.484 182.352C396.743 185.184 395.97 187.852 395.164 190.357C394.358 192.861 393.694 194.854 393.171 196.335H387.29C387.574 194.941 387.944 193.101 388.401 190.814C388.859 188.527 389.316 185.968 389.773 183.136C390.253 180.327 390.645 177.452 390.95 174.511L391.342 170.852H399.705Z" fill="white"/>
<path d="M4.22532 291V224.091H44.3446V231.278H12.3276V253.886H41.339V261.074H12.3276V291H4.22532ZM56.6369 291V240.818H64.0858V248.398H64.6085C65.5233 245.915 67.1786 243.9 69.5744 242.354C71.9702 240.807 74.671 240.034 77.6767 240.034C78.243 240.034 78.9508 240.045 79.8002 240.067C80.6497 240.089 81.2922 240.121 81.7278 240.165V248.006C81.4664 247.94 80.8675 247.842 79.9309 247.712C79.0162 247.559 78.0469 247.483 77.0233 247.483C74.5839 247.483 72.4058 247.995 70.4892 249.018C68.5943 250.02 67.0914 251.414 65.9806 253.2C64.8916 254.964 64.3471 256.979 64.3471 259.244V291H56.6369ZM109.726 292.045C105.196 292.045 101.221 290.967 97.8017 288.811C94.4039 286.655 91.7467 283.638 89.8301 279.761C87.9352 275.884 86.9877 271.354 86.9877 266.17C86.9877 260.943 87.9352 256.38 89.8301 252.482C91.7467 248.583 94.4039 245.555 97.8017 243.399C101.221 241.243 105.196 240.165 109.726 240.165C114.257 240.165 118.221 241.243 121.618 243.399C125.038 245.555 127.695 248.583 129.59 252.482C131.507 256.38 132.465 260.943 132.465 266.17C132.465 271.354 131.507 275.884 129.59 279.761C127.695 283.638 125.038 286.655 121.618 288.811C118.221 290.967 114.257 292.045 109.726 292.045ZM109.726 285.119C113.168 285.119 115.999 284.237 118.221 282.473C120.442 280.709 122.087 278.389 123.154 275.514C124.221 272.639 124.755 269.525 124.755 266.17C124.755 262.816 124.221 259.691 123.154 256.794C122.087 253.897 120.442 251.556 118.221 249.77C115.999 247.984 113.168 247.091 109.726 247.091C106.285 247.091 103.454 247.984 101.232 249.77C99.0105 251.556 97.3661 253.897 96.2988 256.794C95.2316 259.691 94.698 262.816 94.698 266.17C94.698 269.525 95.2316 272.639 96.2988 275.514C97.3661 278.389 99.0105 280.709 101.232 282.473C103.454 284.237 106.285 285.119 109.726 285.119ZM151.945 260.812V291H144.235V240.818H151.683V248.659H152.337C153.513 246.111 155.299 244.063 157.695 242.517C160.091 240.949 163.183 240.165 166.973 240.165C170.371 240.165 173.344 240.862 175.892 242.256C178.441 243.628 180.423 245.719 181.838 248.528C183.254 251.316 183.962 254.845 183.962 259.114V291H176.252V259.636C176.252 255.694 175.228 252.623 173.181 250.423C171.133 248.202 168.324 247.091 164.752 247.091C162.29 247.091 160.091 247.625 158.152 248.692C156.235 249.759 154.722 251.316 153.611 253.364C152.5 255.411 151.945 257.894 151.945 260.812ZM219.875 240.818V247.352H193.869V240.818H219.875ZM201.449 228.795H209.159V276.625C209.159 278.803 209.475 280.437 210.106 281.526C210.76 282.593 211.587 283.312 212.589 283.682C213.613 284.03 214.691 284.205 215.824 284.205C216.673 284.205 217.37 284.161 217.915 284.074C218.459 283.965 218.895 283.878 219.221 283.812L220.79 290.739C220.267 290.935 219.537 291.131 218.601 291.327C217.664 291.545 216.477 291.653 215.04 291.653C212.862 291.653 210.727 291.185 208.636 290.249C206.567 289.312 204.846 287.885 203.474 285.969C202.124 284.052 201.449 281.634 201.449 278.716V228.795ZM258.426 258.722V265.909H229.153V258.722H258.426ZM273.038 291V224.091H313.419V231.278H281.14V253.886H311.328V261.074H281.14V283.812H313.941V291H273.038ZM334.687 260.812V291H326.977V240.818H334.426V248.659H335.079C336.255 246.111 338.041 244.063 340.437 242.517C342.833 240.949 345.926 240.165 349.715 240.165C353.113 240.165 356.086 240.862 358.634 242.256C361.183 243.628 363.165 245.719 364.58 248.528C365.996 251.316 366.704 254.845 366.704 259.114V291H358.994V259.636C358.994 255.694 357.97 252.623 355.923 250.423C353.875 248.202 351.066 247.091 347.494 247.091C345.033 247.091 342.833 247.625 340.894 248.692C338.978 249.759 337.464 251.316 336.353 253.364C335.242 255.411 334.687 257.894 334.687 260.812ZM399.742 292.045C395.56 292.045 391.868 290.989 388.667 288.876C385.465 286.742 382.96 283.736 381.153 279.859C379.345 275.961 378.441 271.354 378.441 266.04C378.441 260.769 379.345 256.195 381.153 252.318C382.96 248.441 385.476 245.446 388.699 243.334C391.923 241.221 395.647 240.165 399.873 240.165C403.14 240.165 405.721 240.709 407.616 241.798C409.532 242.866 410.992 244.085 411.993 245.457C413.017 246.808 413.812 247.919 414.378 248.79H415.032V224.091H422.742V291H415.293V283.29H414.378C413.812 284.205 413.006 285.359 411.961 286.753C410.915 288.125 409.423 289.356 407.485 290.445C405.546 291.512 402.965 292.045 399.742 292.045ZM400.787 285.119C403.88 285.119 406.494 284.313 408.628 282.702C410.763 281.068 412.385 278.814 413.496 275.939C414.607 273.042 415.162 269.699 415.162 265.909C415.162 262.163 414.618 258.885 413.529 256.075C412.44 253.244 410.828 251.044 408.694 249.476C406.559 247.886 403.924 247.091 400.787 247.091C397.52 247.091 394.798 247.929 392.62 249.607C390.464 251.262 388.841 253.516 387.752 256.369C386.685 259.201 386.151 262.381 386.151 265.909C386.151 269.481 386.696 272.726 387.785 275.645C388.895 278.542 390.529 280.85 392.685 282.571C394.863 284.27 397.564 285.119 400.787 285.119ZM21.4141 402H0.766336V335.091H22.3288C28.8194 335.091 34.3733 336.43 38.9908 339.109C43.6082 341.767 47.1475 345.589 49.6087 350.577C52.0698 355.543 53.3004 361.489 53.3004 368.415C53.3004 375.384 52.059 381.385 49.576 386.416C47.093 391.426 43.4775 395.281 38.7294 397.982C33.9813 400.661 28.2095 402 21.4141 402ZM8.86861 394.812H20.8913C26.4235 394.812 31.0083 393.745 34.6456 391.611C38.2829 389.476 40.9946 386.438 42.7805 382.496C44.5665 378.554 45.4595 373.86 45.4595 368.415C45.4595 363.013 44.5774 358.363 42.8132 354.464C41.049 350.544 38.4136 347.538 34.907 345.447C31.4003 343.335 27.0334 342.278 21.8061 342.278H8.86861V394.812ZM86.8857 403.045C82.0504 403.045 77.8795 401.978 74.3729 399.844C70.888 397.688 68.1982 394.682 66.3033 390.827C64.4302 386.95 63.4936 382.441 63.4936 377.301C63.4936 372.161 64.4302 367.631 66.3033 363.71C68.1982 359.768 70.8336 356.697 74.2095 354.497C77.6072 352.276 81.5713 351.165 86.1016 351.165C88.7152 351.165 91.2962 351.6 93.8445 352.472C96.3928 353.343 98.7124 354.759 100.803 356.719C102.894 358.657 104.56 361.227 105.802 364.429C107.043 367.631 107.664 371.573 107.664 376.256V379.523H68.9822V372.858H99.8232C99.8232 370.027 99.2569 367.5 98.1243 365.278C97.0135 363.057 95.4235 361.304 93.3544 360.018C91.3071 358.733 88.8894 358.091 86.1016 358.091C83.0305 358.091 80.3733 358.853 78.13 360.378C75.9084 361.881 74.1986 363.841 73.0007 366.259C71.8028 368.676 71.2038 371.268 71.2038 374.034V378.477C71.2038 382.267 71.8572 385.48 73.1641 388.115C74.4927 390.729 76.3331 392.722 78.6854 394.094C81.0376 395.444 83.7711 396.119 86.8857 396.119C88.9112 396.119 90.7408 395.836 92.3743 395.27C94.0296 394.682 95.4562 393.811 96.6541 392.656C97.852 391.48 98.7777 390.021 99.4311 388.278L106.88 390.369C106.096 392.896 104.778 395.117 102.927 397.034C101.076 398.929 98.7886 400.41 96.0661 401.477C93.3435 402.523 90.2834 403.045 86.8857 403.045ZM158.9 351.818L140.343 402H132.502L113.945 351.818H122.309L136.161 391.807H136.684L150.536 351.818H158.9ZM188.319 403.045C183.484 403.045 179.313 401.978 175.806 399.844C172.322 397.688 169.632 394.682 167.737 390.827C165.864 386.95 164.927 382.441 164.927 377.301C164.927 372.161 165.864 367.631 167.737 363.71C169.632 359.768 172.267 356.697 175.643 354.497C179.041 352.276 183.005 351.165 187.535 351.165C190.149 351.165 192.73 351.6 195.278 352.472C197.826 353.343 200.146 354.759 202.237 356.719C204.328 358.657 205.994 361.227 207.235 364.429C208.477 367.631 209.098 371.573 209.098 376.256V379.523H170.416V372.858H201.257C201.257 370.027 200.69 367.5 199.558 365.278C198.447 363.057 196.857 361.304 194.788 360.018C192.741 358.733 190.323 358.091 187.535 358.091C184.464 358.091 181.807 358.853 179.564 360.378C177.342 361.881 175.632 363.841 174.434 366.259C173.236 368.676 172.637 371.268 172.637 374.034V378.477C172.637 382.267 173.291 385.48 174.598 388.115C175.926 390.729 177.767 392.722 180.119 394.094C182.471 395.444 185.205 396.119 188.319 396.119C190.345 396.119 192.174 395.836 193.808 395.27C195.463 394.682 196.89 393.811 198.088 392.656C199.286 391.48 200.211 390.021 200.865 388.278L208.314 390.369C207.529 392.896 206.212 395.117 204.36 397.034C202.509 398.929 200.222 400.41 197.5 401.477C194.777 402.523 191.717 403.045 188.319 403.045ZM228.537 335.091V402H220.826V335.091H228.537ZM263.045 403.045C258.514 403.045 254.54 401.967 251.12 399.811C247.722 397.655 245.065 394.638 243.148 390.761C241.254 386.884 240.306 382.354 240.306 377.17C240.306 371.943 241.254 367.38 243.148 363.482C245.065 359.583 247.722 356.555 251.12 354.399C254.54 352.243 258.514 351.165 263.045 351.165C267.575 351.165 271.539 352.243 274.937 354.399C278.356 356.555 281.013 359.583 282.908 363.482C284.825 367.38 285.783 371.943 285.783 377.17C285.783 382.354 284.825 386.884 282.908 390.761C281.013 394.638 278.356 397.655 274.937 399.811C271.539 401.967 267.575 403.045 263.045 403.045ZM263.045 396.119C266.486 396.119 269.317 395.237 271.539 393.473C273.761 391.709 275.405 389.389 276.472 386.514C277.54 383.639 278.073 380.525 278.073 377.17C278.073 373.816 277.54 370.691 276.472 367.794C275.405 364.897 273.761 362.556 271.539 360.77C269.317 358.984 266.486 358.091 263.045 358.091C259.603 358.091 256.772 358.984 254.55 360.77C252.329 362.556 250.684 364.897 249.617 367.794C248.55 370.691 248.016 373.816 248.016 377.17C248.016 380.525 248.55 383.639 249.617 386.514C250.684 389.389 252.329 391.709 254.55 393.473C256.772 395.237 259.603 396.119 263.045 396.119ZM297.553 420.818V351.818H305.002V359.79H305.917C306.483 358.919 307.267 357.808 308.269 356.457C309.292 355.085 310.752 353.866 312.647 352.798C314.563 351.709 317.155 351.165 320.422 351.165C324.648 351.165 328.372 352.221 331.596 354.334C334.819 356.446 337.335 359.441 339.142 363.318C340.95 367.195 341.854 371.769 341.854 377.04C341.854 382.354 340.95 386.961 339.142 390.859C337.335 394.736 334.83 397.742 331.628 399.876C328.426 401.989 324.735 403.045 320.553 403.045C317.329 403.045 314.748 402.512 312.81 401.445C310.872 400.356 309.38 399.125 308.334 397.753C307.289 396.359 306.483 395.205 305.917 394.29H305.263V420.818H297.553ZM305.132 376.909C305.132 380.699 305.688 384.042 306.799 386.939C307.909 389.814 309.532 392.068 311.667 393.702C313.801 395.313 316.415 396.119 319.507 396.119C322.731 396.119 325.421 395.27 327.577 393.571C329.755 391.85 331.389 389.542 332.478 386.645C333.588 383.726 334.144 380.481 334.144 376.909C334.144 373.381 333.599 370.201 332.51 367.369C331.443 364.516 329.82 362.262 327.642 360.607C325.486 358.929 322.775 358.091 319.507 358.091C316.371 358.091 313.736 358.886 311.601 360.476C309.467 362.044 307.855 364.244 306.766 367.075C305.677 369.885 305.132 373.163 305.132 376.909ZM374.655 403.045C369.82 403.045 365.649 401.978 362.142 399.844C358.658 397.688 355.968 394.682 354.073 390.827C352.2 386.95 351.263 382.441 351.263 377.301C351.263 372.161 352.2 367.631 354.073 363.71C355.968 359.768 358.603 356.697 361.979 354.497C365.377 352.276 369.341 351.165 373.871 351.165C376.485 351.165 379.066 351.6 381.614 352.472C384.162 353.343 386.482 354.759 388.573 356.719C390.664 358.657 392.33 361.227 393.571 364.429C394.813 367.631 395.434 371.573 395.434 376.256V379.523H356.752V372.858H387.593C387.593 370.027 387.026 367.5 385.894 365.278C384.783 363.057 383.193 361.304 381.124 360.018C379.077 358.733 376.659 358.091 373.871 358.091C370.8 358.091 368.143 358.853 365.9 360.378C363.678 361.881 361.968 363.841 360.77 366.259C359.572 368.676 358.973 371.268 358.973 374.034V378.477C358.973 382.267 359.627 385.48 360.934 388.115C362.262 390.729 364.103 392.722 366.455 394.094C368.807 395.444 371.541 396.119 374.655 396.119C376.681 396.119 378.51 395.836 380.144 395.27C381.799 394.682 383.226 393.811 384.424 392.656C385.622 391.48 386.547 390.021 387.201 388.278L394.65 390.369C393.865 392.896 392.548 395.117 390.696 397.034C388.845 398.929 386.558 400.41 383.836 401.477C381.113 402.523 378.053 403.045 374.655 403.045ZM407.162 402V351.818H414.611V359.398H415.134C416.049 356.915 417.704 354.9 420.1 353.354C422.496 351.807 425.196 351.034 428.202 351.034C428.768 351.034 429.476 351.045 430.326 351.067C431.175 351.089 431.818 351.121 432.253 351.165V359.006C431.992 358.94 431.393 358.842 430.456 358.712C429.542 358.559 428.572 358.483 427.549 358.483C425.109 358.483 422.931 358.995 421.015 360.018C419.12 361.02 417.617 362.414 416.506 364.2C415.417 365.964 414.873 367.979 414.873 370.244V402H407.162Z" fill="url(#paint0_linear_3_13)"/>
<defs>
<linearGradient id="paint0_linear_3_13" x1="213.5" y1="74" x2="213.5" y2="442" gradientUnits="userSpaceOnUse">
<stop stop-color="#9E39C1"/>
<stop offset="0.817708" stop-color="#B230EF" stop-opacity="0.572917"/>
<stop offset="1" stop-color="#D93DAD"/>
</linearGradient>
</defs>
</svg>
